<svg xmlns="http://www.w3.org/2000/svg" height="1707pt" version="1.1" viewBox="-213 0 1707 1707.5" width="1707pt">
<g id="surface1">
<path d="M 854 426.875 L 1054.8125 426.875 L 854 226.0625 Z M 854 426.875 " style=" stroke:none;fill-rule:nonzero;fill:rgb(0%,0%,0%);fill-opacity:1;" />
<path d="M 793.019531 457.367188 L 793.019531 182.945312 L 0.25 182.945312 L 0.25 1707.5 L 1097.929688 1707.5 L 1097.929688 487.855469 L 823.507812 487.855469 C 806.664062 487.855469 793.019531 474.210938 793.019531 457.367188 Z M 183.195312 365.894531 L 427.125 365.894531 L 427.125 426.875 L 183.195312 426.875 Z M 183.195312 731.785156 L 671.054688 731.785156 L 671.054688 792.769531 L 183.195312 792.769531 Z M 183.195312 1097.679688 L 396.632812 1097.679688 L 396.632812 1158.660156 L 183.195312 1158.660156 Z M 305.160156 1524.554688 L 183.195312 1524.554688 L 183.195312 1463.570312 L 305.160156 1463.570312 Z M 914.980469 1524.554688 L 366.144531 1524.554688 L 366.144531 1463.570312 L 914.980469 1463.570312 Z M 914.980469 1341.605469 L 183.195312 1341.605469 L 183.195312 1280.625 L 914.980469 1280.625 Z M 914.980469 1158.660156 L 457.617188 1158.660156 L 457.617188 1097.679688 L 914.980469 1097.679688 Z M 914.980469 975.714844 L 183.195312 975.714844 L 183.195312 914.730469 L 914.980469 914.730469 Z M 914.980469 792.769531 L 732.035156 792.769531 L 732.035156 731.785156 L 914.980469 731.785156 Z M 914.980469 609.820312 L 183.195312 609.820312 L 183.195312 548.839844 L 914.980469 548.839844 Z M 914.980469 609.820312 " style=" stroke:none;fill-rule:nonzero;fill:rgb(0%,0%,0%);fill-opacity:1;" />
<path d="M 183.195312 0 L 183.195312 121.964844 L 823.507812 121.964844 C 824.15625 121.964844 824.757812 122.308594 825.40625 122.335938 C 828.085938 122.503906 830.753906 123.027344 833.277344 123.917969 C 834.242188 124.210938 835.179688 124.539062 836.101562 124.929688 C 839.4375 126.382812 842.472656 128.453125 845.066406 131.019531 L 1149.976562 435.929688 C 1152.519531 438.523438 1154.605469 441.539062 1156.074219 444.863281 C 1156.507812 445.816406 1156.761719 446.753906 1157.078125 447.730469 C 1157.957031 450.269531 1158.484375 452.902344 1158.640625 455.566406 C 1158.640625 456.230469 1159.027344 456.816406 1159.027344 457.480469 L 1159.027344 1524.554688 L 1280.992188 1524.554688 L 1280.992188 0 Z M 183.195312 0 " style=" stroke:none;fill-rule:nonzero;fill:rgb(0%,0%,0%);fill-opacity:1;" />
</g>
</svg>